<?xml version="1.0" encoding="UTF-8" standalone="no"?>
<svg
   width="87.396729"
   height="67.326813"
   viewBox="0 0 23.123719 17.813553"
   version="1.1"
   id="svg8"
   xml:space="preserve"
   xmlns="http://www.w3.org/2000/svg"
   xmlns:svg="http://www.w3.org/2000/svg"
   xmlns:rdf="http://www.w3.org/1999/02/22-rdf-syntax-ns#"
   xmlns:cc="http://creativecommons.org/ns#"
   xmlns:dc="http://purl.org/dc/elements/1.1/"><defs
     id="defs2" /><metadata
     id="metadata5"><rdf:RDF><cc:Work
         rdf:about=""><dc:format>image/svg+xml</dc:format><dc:type
           rdf:resource="http://purl.org/dc/dcmitype/StillImage" /><dc:title /></cc:Work></rdf:RDF></metadata><g
     id="layer14"
     transform="translate(-62.270557,-41.386959)"><g
       id="layer19"><path
         style="display:inline;fill:#cb8e00;fill-opacity:0.670588;stroke:none;stroke-width:0.264583;stroke-linecap:butt;stroke-linejoin:miter;stroke-miterlimit:4;stroke-dasharray:1.5875, 0.529167;stroke-dashoffset:0;stroke-opacity:1"
         d="m 74.943229,55.893229 c -0.416178,-0.832357 -0.65764,-0.964842 -0.06615,-1.852083 0.06955,-0.104327 0.03186,-0.296443 0.132292,-0.396875 0.312263,-0.312265 0.931253,-0.282423 1.389063,-0.396875 0.308173,-0.07704 0.493148,-0.563221 0.79375,-0.463021 0.809697,0.269899 0.534885,1.351511 0.661458,1.984375 0.07144,0.357218 0.496882,0.383106 0.595312,0.727604 0.20768,0.726877 0.45627,1.37556 0.79375,2.050521 0.139224,0.278447 0.223272,0.620147 0.396875,0.79375 0.109311,0.10931 1.252728,0.136335 1.389063,0 0.59838,-0.59838 -0.04821,-0.985465 0.06615,-1.785937 0.07205,-0.504343 0.424658,-1.378484 0.661458,-1.852084 0.200466,-0.400931 1.876828,-2.794774 1.785938,-2.976562 -0.218599,-0.437197 -0.913164,-0.300096 -1.256771,-0.529167 -0.393947,-0.262631 -0.0313,-0.623056 -0.132292,-0.926042 -0.08386,-0.251571 -1.284378,-0.710928 -0.859896,-1.984375 0.36055,-1.081649 1.626345,-1.758636 2.38125,-2.513541 0.642523,-0.642523 1.10401,-1.567031 1.719792,-2.182813 -1.244113,-1.244113 -1.906746,-2.336076 -3.052056,-2.189984 -0.413695,0.05277 -0.901043,0.267274 -1.519906,0.694833 -0.832109,0 -1.493992,0.321387 -2.338608,0.374177 -1.688948,0.105559 -3.881028,-0.546029 -5.519116,0 -0.323057,0.107686 -0.578171,0.221093 -0.935444,0.280633 -0.184543,0.03076 -0.477596,-0.167337 -0.561266,0 -0.762144,1.52429 -0.276752,2.78844 -2.411621,3.816906 -1.569506,-1.046338 -3.734788,0.14868 -5.528994,0.289914 0,0.704378 0.135563,1.972278 -0.126475,2.653576 -0.244663,0.636123 -0.75702,1.490139 -1.130228,1.975551 1.836452,0.477247 3.135294,2.678266 3.64377,3.746064 0.1112,0.233521 0.121669,0.399772 0.297656,0.595313 1.239325,1.377028 2.461761,1.193168 4.167187,1.852083 0.709986,0.274312 1.521773,0.515231 2.182813,0.892969 0.365475,0.208842 1.203454,0.544457 1.455205,0.628374 0.05826,-0.676598 1.142749,-2.873868 0.926041,-3.307284 z"
         id="path69" /></g></g></svg>
