<?xml version="1.0" encoding="UTF-8" standalone="no"?>
<svg
   width="97.142693"
   height="62.782494"
   viewBox="0 0 25.702339 16.611202"
   version="1.1"
   id="svg8"
   xml:space="preserve"
   xmlns="http://www.w3.org/2000/svg"
   xmlns:svg="http://www.w3.org/2000/svg"
   xmlns:rdf="http://www.w3.org/1999/02/22-rdf-syntax-ns#"
   xmlns:cc="http://creativecommons.org/ns#"
   xmlns:dc="http://purl.org/dc/elements/1.1/"><defs
     id="defs2" /><metadata
     id="metadata5"><rdf:RDF><cc:Work
         rdf:about=""><dc:format>image/svg+xml</dc:format><dc:type
           rdf:resource="http://purl.org/dc/dcmitype/StillImage" /><dc:title /></cc:Work></rdf:RDF></metadata><g
     id="layer14"
     transform="translate(-19.938288,-33.593487)"><g
       id="layer19"><path
         style="display:inline;fill:#4a664a;fill-opacity:0.670588;stroke:none;stroke-width:0.264583;stroke-linecap:butt;stroke-linejoin:miter;stroke-miterlimit:4;stroke-dasharray:1.5875, 0.529167;stroke-dashoffset:0;stroke-opacity:1"
         d="m 21.298959,36.644794 c -0.304404,1.027364 -1.122616,1.975061 -1.322916,2.976562 -0.380602,1.903008 2.230477,3.242052 2.711979,5.027084 1.271723,0.847815 2.964368,0.808543 4.398698,1.256771 0.612588,0.191434 1.129852,0.674273 1.686719,0.859896 0.90937,0.303123 1.790829,-0.554009 2.587282,-0.795409 0.624935,1.164793 1.346673,2.305526 2.439801,2.978221 0.993534,0.611406 2.225402,0.715041 3.241146,1.256771 0.216332,-0.444475 0.588624,-0.753988 0.926042,-1.091406 0.180332,-0.180332 0.28299,-0.435485 0.496094,-0.595313 1.374124,-1.030593 3.774531,-1.782198 4.987542,-1.418396 0.206559,-0.309838 0.773112,-0.398935 1.028988,-0.65481 0.770863,-0.770864 0.736728,-1.96166 1.160294,-2.920804 -2.224088,-0.444817 -3.847799,0.169775 -5.953126,-1.058333 -0.547957,-0.319643 0.735377,-2.120581 0.396876,-2.910417 -0.08221,-0.191814 -0.614937,-0.826899 -1.252926,-1.580601 -0.867974,-1.0254 -1.93077,-2.270349 -2.31895,-2.917314 -0.575114,0.191706 -1.528229,0.559684 -2.14974,0.429948 -2.125742,-0.443732 -2.297091,-0.06477 -4.597135,0.03307 -0.549928,0.02339 -1.046402,-0.04813 -1.5875,-0.198437 -1.773373,-0.492604 -3.326929,-2.090255 -5.291667,-1.653646 -1.336809,0.297068 -1.25154,1.842694 -1.587501,2.976563 z"
         id="path68" /></g></g></svg>
