<?xml version="1.0" encoding="UTF-8" standalone="no"?>
<svg
   width="158.67502"
   height="111.7711"
   viewBox="0 0 41.982767 29.57277"
   version="1.1"
   id="svg8"
   xml:space="preserve"
   xmlns="http://www.w3.org/2000/svg"
   xmlns:svg="http://www.w3.org/2000/svg"
   xmlns:rdf="http://www.w3.org/1999/02/22-rdf-syntax-ns#"
   xmlns:cc="http://creativecommons.org/ns#"
   xmlns:dc="http://purl.org/dc/elements/1.1/"><defs
     id="defs2" /><metadata
     id="metadata5"><rdf:RDF><cc:Work
         rdf:about=""><dc:format>image/svg+xml</dc:format><dc:type
           rdf:resource="http://purl.org/dc/dcmitype/StillImage" /><dc:title /></cc:Work></rdf:RDF></metadata><g
     id="layer14"
     transform="translate(-12.81028,-8.4018393)"><g
       id="layer19"><path
         style="display:inline;fill:#dbf1fd;fill-opacity:0.670588;stroke:none;stroke-width:0.264583;stroke-linecap:butt;stroke-linejoin:miter;stroke-miterlimit:4;stroke-dasharray:1.5875, 0.529167;stroke-dashoffset:0;stroke-opacity:1"
         d="m 53.787995,29.934189 c -0.693698,-1.387395 -2.935013,-1.88276 -3.46114,-3.461141 -0.320783,-0.962349 1.153048,-2.508442 1.496709,-3.367596 0.2584,-0.646 1.158694,-0.917958 1.403165,-1.590254 0.3118,-0.85745 0.05935,-1.984883 -0.187088,-2.80633 -0.146436,-0.488119 -0.182043,-0.99868 -0.280633,-1.49671 -0.863888,-1.727778 -3.403084,-0.902267 -4.770762,-1.683798 -0.828558,-0.473462 0.05941,-1.47977 -1.683798,-2.525697 -0.196258,-0.117754 -1.819782,-0.816801 -1.777342,-1.028988 -1.219112,0 -2.503666,0.03352 -3.582834,-0.398149 -0.462482,-0.184997 -1.094711,0.118646 -1.5875,-0.06615 -0.693147,-0.259931 -1.36632,-0.895032 -1.984375,-1.322917 C 36.765924,9.7665931 36.044261,9.5453096 35.388022,9.326563 34.84524,9.1456358 34.482158,8.6599465 33.998959,8.4666671 33.176642,8.1377402 31.092701,9.1660833 30.162501,9.1942713 28.705201,9.2384319 27.488293,8.982445 26.061459,8.8635421 24.938683,8.7699775 23.916769,9.0726308 22.688021,8.9958338 22.12741,8.9607961 21.397717,8.6950083 20.835938,8.8635421 c -1.473549,0.4420648 -2.358083,1.9105069 -3.770313,2.3812499 -0.609278,0.203094 -1.303961,0.0803 -1.918229,0.264584 -2.291852,0.687555 -2.874253,2.179206 -1.852084,4.365625 0.376842,0.376842 0.951797,3.663776 1.190625,3.902604 1.350448,1.350448 3.266061,2.526537 3.738214,2.998691 0.274043,0.274042 0.06834,2.357336 0.0321,2.755997 -0.03544,0.389827 0.05527,0.803771 0,1.190625 -0.09029,0.632045 -0.57582,1.070157 -0.396875,1.785938 0.128309,0.513235 0.638462,0.759255 0.926042,1.190625 0.695314,1.042971 1.651386,1.486586 2.579687,2.182812 0.612793,0.459595 1.026156,1.168851 1.521355,1.785938 1.964738,-0.436609 3.518294,1.161042 5.291667,1.653646 0.541098,0.150307 1.037572,0.221827 1.5875,0.198437 2.300044,-0.09784 2.471393,-0.476802 4.597135,-0.03307 0.621511,0.129736 1.574626,-0.238242 2.14974,-0.429948 0.38818,0.646965 1.450976,1.891914 2.31895,2.917314 1.365669,-0.771903 2.437167,-1.986199 3.918311,-2.568077 0.795989,-0.31271 1.697448,-0.290174 2.525697,-0.42095 1.79128,-0.282834 3.612857,-0.683328 5.3788,-1.07576 1.20996,-0.631651 1.51386,-0.961076 2.80633,-1.426551 0.451283,-0.162527 1.021153,-0.326769 1.332455,-0.326769 -0.434996,-0.450669 -0.411547,-1.035309 -1.00505,-2.222314 z"
         id="path58" /></g></g></svg>
