<?xml version="1.0" encoding="UTF-8" standalone="no"?>
<svg
   width="93.470978"
   height="103.81868"
   viewBox="0 0 24.730864 27.468694"
   version="1.1"
   id="svg8"
   xml:space="preserve"
   xmlns="http://www.w3.org/2000/svg"
   xmlns:svg="http://www.w3.org/2000/svg"
   xmlns:rdf="http://www.w3.org/1999/02/22-rdf-syntax-ns#"
   xmlns:cc="http://creativecommons.org/ns#"
   xmlns:dc="http://purl.org/dc/elements/1.1/"><defs
     id="defs2" /><metadata
     id="metadata5"><rdf:RDF><cc:Work
         rdf:about=""><dc:format>image/svg+xml</dc:format><dc:type
           rdf:resource="http://purl.org/dc/dcmitype/StillImage" /><dc:title /></cc:Work></rdf:RDF></metadata><g
     id="layer14"
     transform="translate(-38.831451,-32.156502)"><g
       id="layer19"><path
         style="display:inline;fill:#455823;fill-opacity:0.670588;stroke:none;stroke-width:0.264583;stroke-linecap:butt;stroke-linejoin:miter;stroke-miterlimit:4;stroke-dasharray:1.5875, 0.529167;stroke-dashoffset:0;stroke-opacity:1"
         d="m 48.352606,59.531253 c 0.369494,0.184747 1.863895,0.06142 2.182813,-0.06615 0.546398,-0.218559 0.764264,-0.672417 1.190625,-0.992188 0.372373,-0.27928 0.95659,-0.426863 1.256771,-0.79375 0.131717,-0.160988 0.183646,-0.382084 0.330729,-0.529166 0.620316,-0.620316 1.548973,-0.953661 2.182813,-1.587501 0.250635,-0.250635 0.15133,-1.049303 0.264583,-1.389062 0.757839,0.143283 1.558858,-0.08327 2.315105,0.03308 0.323585,0.04978 0.82606,0.202643 1.157552,0.06615 0.671786,-0.276618 0.999178,-1.379718 1.458533,-1.839072 0.509829,-0.557468 0.912545,-0.59645 1.578427,-0.947884 0.373208,-0.485412 0.885565,-1.339428 1.130228,-1.975551 0.262038,-0.681298 0.126475,-1.949198 0.126475,-2.653576 -0.284265,0.02238 -0.559215,0.0183 -0.821006,-0.02533 -1.210908,-0.201818 -2.357506,-1.017143 -3.571875,-1.190625 0.01902,-0.837892 2.143484,-3.632899 1.388809,-4.387574 -0.155236,-0.155236 -0.534146,-0.40038 -0.654811,-0.561266 -0.189973,-0.2533 -0.200853,-0.709869 -0.280633,-1.028988 -0.195977,-0.783908 -0.944037,-1.35226 -1.403165,-1.964431 -0.972865,-1.297154 -1.295479,-3.332244 -1.870887,-4.770761 -0.830081,-0.276695 -1.258569,-0.499585 -1.520647,-0.771105 -0.311302,0 -0.881172,0.164242 -1.332455,0.326769 -1.29247,0.465475 -1.59637,0.7949 -2.80633,1.426551 -1.765943,0.392432 -3.58752,0.792926 -5.3788,1.07576 -0.828249,0.130776 -1.729708,0.10824 -2.525697,0.42095 -1.481144,0.581878 -2.552642,1.796174 -3.918311,2.568077 0.637989,0.753702 1.170716,1.388787 1.252926,1.580601 0.338501,0.789836 -0.944833,2.590774 -0.396876,2.910417 2.105327,1.228108 3.729038,0.613516 5.953126,1.058333 -0.423566,0.959144 -0.389431,2.14994 -1.160294,2.920804 -0.255876,0.255875 -0.822429,0.344972 -1.028988,0.65481 -0.631346,0.947018 3.003059,4.827173 3.414368,5.238483 0.539932,0.539931 0.459958,1.62538 0.841899,2.198292 -0.138429,1.232813 -1.332285,1.983915 -1.332285,3.127818 0.809117,0.382708 1.224418,1.490654 1.977278,1.867085 z"
         id="path36" /></g></g></svg>
