<?xml version="1.0" encoding="UTF-8" standalone="no"?>
<svg
   width="147.73508"
   height="142.26001"
   viewBox="0 0 39.088241 37.639629"
   version="1.1"
   id="svg8"
   xml:space="preserve"
   xmlns="http://www.w3.org/2000/svg"
   xmlns:svg="http://www.w3.org/2000/svg"
   xmlns:rdf="http://www.w3.org/1999/02/22-rdf-syntax-ns#"
   xmlns:cc="http://creativecommons.org/ns#"
   xmlns:dc="http://purl.org/dc/elements/1.1/"><defs
     id="defs2" /><metadata
     id="metadata5"><rdf:RDF><cc:Work
         rdf:about=""><dc:format>image/svg+xml</dc:format><dc:type
           rdf:resource="http://purl.org/dc/dcmitype/StillImage" /><dc:title /></cc:Work></rdf:RDF></metadata><g
     id="layer14"
     transform="translate(-44.526291,-9.2302895)"><g
       id="layer19"><path
         style="display:inline;fill:#7b9b9b;fill-opacity:0.670588;stroke:none;stroke-width:0.264583;stroke-linecap:butt;stroke-linejoin:miter;stroke-miterlimit:4;stroke-dasharray:1.5875, 0.529167;stroke-dashoffset:0;stroke-opacity:1"
         d="m 83.535091,16.837981 c -0.04447,-0.133411 -0.23092,-0.71107 -0.280633,-0.748355 -0.386892,-0.290169 -1.294277,-0.413277 -1.777342,-0.65481 -0.937761,-0.46888 -1.384126,-1.770996 -2.525697,-2.15152 -1.316183,-0.438729 -0.40274,-0.06661 -1.309617,-0.561266 -0.585349,-0.319281 -0.97878,-0.959402 -1.683798,-0.841899 -2.628242,0.43804 -1.624326,0.930364 -2.80633,1.403165 -0.145355,0.05814 -2.04702,0.170515 -2.245065,-0.09354 -0.866382,-1.155177 1.083862,-2.030539 0.654811,-2.245064 -0.48529,-0.242649 -1.106301,-0.209305 -1.590254,-0.56127 C 69.757188,10.227801 69.666584,9.8863265 69.4099,9.8221557 68.496699,9.5938553 65.266616,10.06285 64.358506,10.289877 61.539748,11.191119 59.15106,8.9456266 56.313692,9.2608896 55.178275,9.3870471 54.262629,10.290453 53.133185,10.196333 52.641576,10.155366 52.214724,9.8706261 51.73002,9.8221557 49.70045,9.6191987 45.039805,9.4101764 44.527106,11.973675 c -0.04244,0.212187 1.581084,0.911234 1.777342,1.028988 1.743212,1.045927 0.85524,2.052235 1.683798,2.525697 1.367678,0.781531 3.906874,-0.04398 4.770762,1.683798 0.09859,0.49803 0.134197,1.008591 0.280633,1.49671 0.246434,0.821447 0.498888,1.94888 0.187088,2.80633 -0.244471,0.672296 -1.144765,0.944254 -1.403165,1.590254 -0.343661,0.859154 -1.817492,2.405247 -1.496709,3.367596 0.526127,1.578381 2.767442,2.073746 3.46114,3.461141 0.593503,1.187005 0.570054,1.771645 1.00505,2.222314 0.262078,0.27152 0.690566,0.49441 1.520647,0.771105 0.575408,1.438517 0.898022,3.473607 1.870887,4.770761 0.459128,0.612171 1.207188,1.180523 1.403165,1.964431 0.07978,0.319119 0.09066,0.775688 0.280633,1.028988 0.120665,0.160886 0.499575,0.40603 0.654811,0.561266 0.754675,0.754675 -1.369789,3.549682 -1.388809,4.387574 1.214369,0.173482 2.360967,0.988807 3.571875,1.190625 0.261791,0.04363 0.536741,0.04771 0.821006,0.02533 1.794206,-0.141234 3.959488,-1.336252 5.528994,-0.289914 2.134869,-1.028466 1.649477,-2.292616 2.411621,-3.816906 0.08367,-0.167337 0.376723,0.03076 0.561266,0 0.357273,-0.05954 0.612387,-0.172947 0.935444,-0.280633 1.638088,-0.546029 3.830168,0.105559 5.519116,0 0.844616,-0.05279 1.506499,-0.374177 2.338608,-0.374177 0.618863,-0.427559 1.106211,-0.642063 1.519906,-0.694833 -0.43343,-1.787981 1.280862,-6.274305 0.257437,-7.724158 -0.573258,-0.812115 -1.537259,-1.805446 -1.870887,-2.80633 -0.280709,-0.842128 0.435589,-1.397458 0.561266,-2.15152 0.227252,-1.363512 0.378835,-3.62494 0.09354,-5.051394 -0.186067,-0.930335 -1.042958,-1.370969 -0.935443,-2.338609 0.08522,-0.767003 0.728268,-2.245549 1.403165,-2.712785 0.508028,-0.351712 1.152553,-0.483357 1.504644,-0.789803 0.238734,-0.207785 0.343023,-0.495934 0.179154,-0.98754 z"
         id="path59" /></g></g></svg>
