<?xml version="1.0" encoding="UTF-8" standalone="no"?>
<svg
   width="67.164299"
   height="105.72028"
   viewBox="0 0 17.770555 27.971824"
   version="1.1"
   id="svg8"
   xml:space="preserve"
   xmlns="http://www.w3.org/2000/svg"
   xmlns:svg="http://www.w3.org/2000/svg"
   xmlns:rdf="http://www.w3.org/1999/02/22-rdf-syntax-ns#"
   xmlns:cc="http://creativecommons.org/ns#"
   xmlns:dc="http://purl.org/dc/elements/1.1/"><defs
     id="defs2" /><metadata
     id="metadata5"><rdf:RDF><cc:Work
         rdf:about=""><dc:format>image/svg+xml</dc:format><dc:type
           rdf:resource="http://purl.org/dc/dcmitype/StillImage" /><dc:title /></cc:Work></rdf:RDF></metadata><g
     id="layer14"
     transform="translate(-29.937057,-47.006573)"><g
       id="layer19"><path
         style="display:inline;fill:#507805;fill-opacity:0.670588;stroke:none;stroke-width:0.264583;stroke-linecap:butt;stroke-linejoin:miter;stroke-miterlimit:4;stroke-dasharray:1.5875, 0.529167;stroke-dashoffset:0;stroke-opacity:1"
         d="m 31.103493,66.930975 c 0.756495,-0.84055 2.45389,-2.123186 2.80633,-3.180508 0.469549,-0.851882 1.780128,-1.724342 2.602684,-1.837964 0.233453,-0.466906 0.67343,-0.748556 0.926041,-1.190625 0.226626,-0.396596 0.07537,-1.001415 0.396875,-1.322917 -1.238412,-2.285476 -1.889328,-4.842755 -1.727308,-7.43508 0.04906,-0.784893 0.933553,-1.040663 0.933553,-1.759191 0.216332,-0.444475 0.588624,-0.753988 0.926042,-1.091406 0.180332,-0.180332 0.28299,-0.435485 0.496094,-0.595313 1.374124,-1.030593 3.774531,-1.782198 4.987542,-1.418396 -0.631346,0.947018 3.003059,4.827173 3.414368,5.238483 0.539932,0.539931 0.459958,1.62538 0.841899,2.198292 -0.138429,1.232813 -1.332285,1.983915 -1.332285,3.127818 -0.22965,-0.10859 -0.491025,-0.15882 -0.800847,-0.11729 -0.344989,0.172494 -0.485491,0.909979 -0.79375,1.25677 -0.473772,0.532994 -1.339033,0.775955 -1.5875,1.521355 -0.10851,0.32553 0.24601,0.750821 0,1.058333 -0.211009,0.263761 -0.535542,0.07677 -0.727604,0.396875 -0.215418,0.359021 0.279197,1.036336 -0.198438,1.322917 -0.01064,0.137826 -0.06625,0.279573 -0.03192,0.413479 0.09901,0.386199 0.430004,0.7001 0.514494,1.122532 0.311854,1.559268 0.361462,3.639604 -0.140316,5.144938 -0.388653,1.16596 -1.27289,2.022225 -1.730571,3.133736 -0.361357,0.877582 -0.17942,1.324298 -0.621189,2.06058 -0.761866,-0.38549 -1.531299,-0.765369 -2.356125,-0.762769 -0.896666,0.0029 -0.728279,-0.467744 -0.859896,-1.389062 -0.03329,-0.233056 -0.182813,-0.390891 -0.264583,-0.595313 -0.412965,-1.032431 0.791289,-1.29169 -0.396875,-2.182812 -0.302453,-0.226841 -0.430041,-0.584319 -0.859896,-0.727605 -1.818545,-0.606181 -1.315963,0.492618 -2.711979,1.190625 -0.707993,0.353997 -1.485125,0.5772 -2.182813,0.926042 -0.231633,0.115817 -0.454983,0.241529 -0.671373,0.375637 -0.0437,-1.752382 -0.09838,-3.495797 1.149346,-4.882161 z"
         id="path65" /></g></g></svg>
