<?xml version="1.0" encoding="UTF-8" standalone="no"?>
<svg
   width="127.59496"
   height="91.803619"
   viewBox="0 0 33.759502 24.289709"
   version="1.1"
   id="svg8"
   xml:space="preserve"
   xmlns="http://www.w3.org/2000/svg"
   xmlns:svg="http://www.w3.org/2000/svg"
   xmlns:rdf="http://www.w3.org/1999/02/22-rdf-syntax-ns#"
   xmlns:cc="http://creativecommons.org/ns#"
   xmlns:dc="http://purl.org/dc/elements/1.1/"><defs
     id="defs2" /><metadata
     id="metadata5"><rdf:RDF><cc:Work
         rdf:about=""><dc:format>image/svg+xml</dc:format><dc:type
           rdf:resource="http://purl.org/dc/dcmitype/StillImage" /><dc:title /></cc:Work></rdf:RDF></metadata><g
     id="layer14"
     transform="translate(-40.257687,-51.485706)"><g
       id="layer19"><path
         style="display:inline;fill:#f5deb3;fill-opacity:0.670588;stroke:none;stroke-width:0.264583;stroke-linecap:butt;stroke-linejoin:miter;stroke-miterlimit:4;stroke-dasharray:1.5875, 0.529167;stroke-dashoffset:0;stroke-opacity:1"
         d="m 43.060938,75.736979 c 1.63387,-0.297067 3.153704,-0.727604 4.828645,-0.727604 0.887858,-0.0227 1.751186,-0.06615 2.645834,-0.06615 1.572698,0 3.268857,0.128828 4.828646,-0.06615 2.134838,-0.266854 4.093955,-1.32203 6.217708,-1.5875 0.50556,-0.06319 2.599195,-0.521543 2.778125,-1.058333 0.169692,-0.509089 -0.16979,-1.084031 0.132292,-1.5875 0.469368,-0.78228 1.564034,-1.578999 1.719791,-2.513542 0.129992,-0.77986 -0.503553,-2.235095 0.132292,-2.711979 0.258166,-0.193625 0.661575,-0.198525 0.926042,-0.396875 0.983164,-0.737373 6.365524,-4.030846 6.482291,-4.497916 0.117507,-0.470029 0.08179,-0.865937 0.264584,-1.322917 -0.251751,-0.08392 -1.08973,-0.419532 -1.455205,-0.628374 -0.66104,-0.377738 -1.472827,-0.618657 -2.182813,-0.892969 -1.705426,-0.658915 -2.927862,-0.475055 -4.167187,-1.852083 -0.175987,-0.195541 -0.186456,-0.361792 -0.297656,-0.595313 -0.508476,-1.067798 -1.807318,-3.268817 -3.64377,-3.746064 -0.665882,0.351434 -1.068598,0.390416 -1.578427,0.947884 -0.459355,0.459354 -0.786747,1.562454 -1.458533,1.839072 -0.331492,0.136493 -0.833967,-0.01637 -1.157552,-0.06615 -0.756247,-0.11635 -1.557266,0.110203 -2.315105,-0.03308 -0.113253,0.339759 -0.01395,1.138427 -0.264583,1.389062 -0.63384,0.63384 -1.562497,0.967185 -2.182813,1.587501 -0.147083,0.147082 -0.199012,0.368178 -0.330729,0.529166 -0.300181,0.366887 -0.884398,0.51447 -1.256771,0.79375 -0.426361,0.319771 -0.644227,0.773629 -1.190625,0.992188 -0.318918,0.12757 -1.813319,0.250897 -2.182813,0.06615 -0.75286,-0.376431 -1.168161,-1.484377 -1.977278,-1.867085 -0.22965,-0.10859 -0.491025,-0.15882 -0.800847,-0.11729 -0.344989,0.172494 -0.485491,0.909979 -0.79375,1.25677 -0.473772,0.532994 -1.339033,0.775955 -1.5875,1.521355 -0.10851,0.32553 0.24601,0.750821 0,1.058333 -0.211009,0.263761 -0.535542,0.07677 -0.727604,0.396875 -0.215418,0.359021 0.279197,1.036336 -0.198438,1.322917 -0.01064,0.137826 -0.06625,0.279573 -0.03192,0.413479 0.09901,0.386199 0.430008,0.7001 0.514494,1.122532 0.311854,1.559268 0.361462,3.639604 -0.140316,5.144938 -0.388653,1.16596 -1.27289,2.022225 -1.730571,3.133736 -0.361357,0.877582 -0.17942,1.324298 -0.621189,2.06058 0.917542,0.464259 1.824111,0.936611 2.803251,0.758586 z"
         id="path63" /></g></g></svg>
