<?xml version="1.0" encoding="UTF-8" standalone="no"?>
<svg
   width="399.99997"
   height="399.99997"
   viewBox="0 0 105.83333 105.83333"
   version="1.1"
   id="svg8"
   inkscape:version="1.3.2 (091e20e, 2023-11-25, custom)"
   sodipodi:docname="Udgaard.svg"
   inkscape:export-filename="zones\path11.svg"
   inkscape:export-xdpi="96.000008"
   inkscape:export-ydpi="96.000008"
   xmlns:inkscape="http://www.inkscape.org/namespaces/inkscape"
   xmlns:sodipodi="http://sodipodi.sourceforge.net/DTD/sodipodi-0.dtd"
   xmlns="http://www.w3.org/2000/svg"
   xmlns:svg="http://www.w3.org/2000/svg"
   xmlns:rdf="http://www.w3.org/1999/02/22-rdf-syntax-ns#"
   xmlns:cc="http://creativecommons.org/ns#"
   xmlns:dc="http://purl.org/dc/elements/1.1/">
  <defs
     id="defs2" />
  <sodipodi:namedview
     id="base"
     pagecolor="#ffffff"
     bordercolor="#666666"
     borderopacity="1.0"
     inkscape:pageopacity="0.0"
     inkscape:pageshadow="2"
     inkscape:zoom="1"
     inkscape:cx="-34"
     inkscape:cy="219"
     inkscape:document-units="px"
     inkscape:current-layer="layer8"
     inkscape:document-rotation="0"
     showgrid="false"
     inkscape:snap-global="false"
     units="px"
     inkscape:window-width="1920"
     inkscape:window-height="1057"
     inkscape:window-x="-8"
     inkscape:window-y="-8"
     inkscape:window-maximized="1"
     inkscape:showpageshadow="0"
     inkscape:pagecheckerboard="0"
     inkscape:deskcolor="#d1d1d1" />
  <metadata
     id="metadata5">
    <rdf:RDF>
      <cc:Work
         rdf:about="">
        <dc:format>image/svg+xml</dc:format>
        <dc:type
           rdf:resource="http://purl.org/dc/dcmitype/StillImage" />
        <dc:title />
      </cc:Work>
    </rdf:RDF>
  </metadata>
  <g
     inkscape:groupmode="layer"
     id="layer14"
     inkscape:label="Zones">
    <g
       inkscape:groupmode="layer"
       id="layer18"
       inkscape:label="Borders">
      <path
         style="fill:#c0c0c0;stroke:#c0c0c0;stroke-width:0.396875;paint-order:stroke fill markers"
         d="m 74.678651,53.313545 c -0.396875,-0.286631 -0.772893,-0.604615 -1.190626,-0.859896 -0.783759,-0.478965 -1.777939,-0.697614 -2.05052,-1.719792 -0.460495,-1.726856 0.900911,-3.113122 -1.190626,-3.96875 -2.415355,-0.9881 -5.317588,-1.123815 -7.871354,-1.058333 -1.247513,0.03199 -3.432149,0.905531 -4.564063,0 -0.18302,-0.146415 -0.28085,-0.381696 -0.463021,-0.529167 -0.728371,-0.589635 -1.700144,-1.047986 -2.315104,-1.785938 -0.875581,-1.050694 0.494866,-1.884312 0.992187,-2.645833 0.759664,-1.163233 1.675908,-2.515307 1.852084,-3.96875 0.111463,-0.919573 0.163843,-1.856987 0.06615,-2.778126 -0.15842,-1.493676 -1.753934,-3.855828 -0.859896,-5.357812 0.41742,-0.701265 0.937376,-1.348156 1.521354,-1.91823 2.381298,-2.324601 9.98464,-3.359436 12.700001,-1.322916 2.182474,1.636855 2.834518,4.676031 4.233333,6.879167 1.240822,1.954294 3.520676,4.081862 4.365626,6.217708 1.103114,2.788428 1.958194,4.888225 -0.132292,7.143751 -1.152361,1.243335 -2.882871,2.116698 -3.571875,3.770313 -0.557927,1.339022 0.132291,2.78838 0.132291,4.167187 z"
         id="path11" />
    </g>
  </g>
</svg>
